<svg width="30" height="30" viewBox="0 0 30 30" fill="none" xmlns="http://www.w3.org/2000/svg">
<path d="M15 30C14.3963 30 13.7927 29.9053 13.2127 29.7277L6.37108 27.5972C4.47721 27.0053 2.99763 25.5257 2.4058 23.6319L0.275202 16.7903C-0.0917341 15.6185 -0.0917341 14.3875 0.275202 13.2156L2.4058 6.33853C2.99763 4.43283 4.48905 2.95325 6.39475 2.36142L13.2363 0.266325C14.3963 -0.0887749 15.6155 -0.0887749 16.7755 0.266325L23.6408 2.37325C25.5465 2.96509 27.0379 4.4565 27.6297 6.3622L29.7366 13.2275C30.0917 14.3874 30.0917 15.6066 29.7366 16.7666L27.6297 23.6082C27.0497 25.5139 25.5583 27.0053 23.6526 27.5972L16.7755 29.7277C16.1955 29.9053 15.5918 30 14.9882 30H15ZM15 2.51529C14.6567 2.51529 14.3016 2.56264 13.9702 2.66917L7.12862 4.76425C6.01598 5.10751 5.1519 5.9716 4.80864 7.08425L2.67804 13.9613C2.46498 14.6479 2.46498 15.3699 2.67804 16.0446L4.80864 22.8862C5.1519 23.987 6.01598 24.8629 7.12862 25.2062L13.9702 27.3368C14.6567 27.5498 15.3669 27.5498 16.0535 27.3368L22.9306 25.2062C24.0432 24.8629 24.9073 23.987 25.2505 22.8862L27.3456 16.0446C27.5587 15.3699 27.5587 14.6597 27.3456 13.9732L25.2387 7.10791C24.8954 5.99527 24.0195 5.11936 22.9069 4.7761L16.0416 2.66917C15.6984 2.56264 15.3551 2.51529 15.0118 2.51529H15Z" fill="#2F2F2F" style="fill:#2F2F2F;fill:color(display-p3 0.1825 0.1825 0.1825);fill-opacity:1;"/>
<path d="M17.7105 17.2638L22.9423 15.6421C23.5696 15.4409 23.5696 14.5532 22.9423 14.3519L17.7105 12.7422C17.4975 12.6711 17.3317 12.5054 17.2607 12.2924L15.6509 7.06057C15.4615 6.43322 14.562 6.42139 14.3607 7.06057L12.7391 12.2924C12.6681 12.5054 12.5024 12.6711 12.2893 12.7422L7.04569 14.3519C6.41834 14.5413 6.40651 15.4409 7.04569 15.6421L12.2893 17.2756C12.5024 17.3466 12.6681 17.5123 12.7273 17.7136L14.3607 22.9572C14.562 23.5845 15.4497 23.5845 15.6509 22.9572L17.2607 17.7136C17.3317 17.5005 17.4975 17.3348 17.7105 17.2638Z" fill="#2F2F2F" style="fill:#2F2F2F;fill:color(display-p3 0.1825 0.1825 0.1825);fill-opacity:1;"/>
</svg>

